<svg width="24" height="24" fill="none" xmlns="http://www.w3.org/2000/svg"><g clip-path="url(#a)"><path d="M8.143 3h7.714V1.125C15.857.504 16.43 0 17.143 0c.712 0 1.286.504 1.286 1.125V3h2.142C22.462 3 24 4.343 24 6v15c0 1.655-1.538 3-3.429 3H3.43C1.535 24 0 22.655 0 21V6c0-1.657 1.535-3 3.429-3H5.57V1.125C5.571.504 6.145 0 6.857 0c.713 0 1.286.504 1.286 1.125V3zM2.57 21c0 .413.384.75.858.75H20.57c.472 0 .858-.337.858-.75V9H2.57v12z" fill="#000"/></g><defs><clipPath id="a"><path fill="#fff" d="M0 0h24v24H0z"/></clipPath></defs></svg>