<svg width="24" height="24" fill="none" xmlns="http://www.w3.org/2000/svg"><g clip-path="url(#a)"><path d="M14.571 14.25H9.43C4.22 14.25 0 17.944 0 22.5c0 .828.768 1.5 1.714 1.5h20.572c.946 0 1.714-.672 1.714-1.5 0-4.556-4.221-8.25-9.429-8.25zm-11.947 7.5c.424-2.958 3.312-5.25 6.805-5.25h5.142c3.491 0 6.38 2.294 6.804 5.25H2.625zM12 12c3.787 0 6.857-2.686 6.857-6S15.787 0 12 0C8.213 0 5.143 2.686 5.143 6s3.07 6 6.857 6zm0-9.75c2.363 0 4.286 1.682 4.286 3.75S14.363 9.75 12 9.75C9.637 9.75 7.714 8.067 7.714 6c0-2.068 1.923-3.75 4.286-3.75z" fill="#000"/></g><defs><clipPath id="a"><path fill="#fff" d="M0 0h24v24H0z"/></clipPath></defs></svg>