<svg width="48" height="48" fill="none" xmlns="http://www.w3.org/2000/svg"><path d="M30.667 32.25h8c1.104 0 2-1.008 2-2.25s-.896-2.25-2-2.25h-8c-1.105 0-2 1.008-2 2.25s.9 2.25 2 2.25zM17.333 30c2.946 0 5.334-2.686 5.334-6s-2.388-6-5.334-6C14.388 18 12 20.686 12 24c0 3.31 2.392 6 5.333 6zM42.667 3H5.333C2.387 3 0 5.686 0 9v30c0 3.314 2.388 6 5.333 6h37.334C45.612 45 48 42.314 48 39V9c0-3.314-2.392-6-5.333-6zM44 39c0 .827-.598 1.5-1.333 1.5h-16c0-4.142-2.985-7.5-6.667-7.5h-5.333C10.983 33 8 36.356 8 40.5H5.333C4.598 40.5 4 39.827 4 39V15h40v24zM30.667 24.75h8c1.104 0 2-1.008 2-2.25s-.896-2.25-2-2.25h-8c-1.105 0-2 1.008-2 2.25s.9 2.25 2 2.25z" fill="#000"/></svg>