<svg width="24" height="24" fill="none" xmlns="http://www.w3.org/2000/svg"><g clip-path="url(#a)"><path d="M23.512.196a1.13 1.13 0 0 0-1.192-.05L.568 12.52a1.125 1.125 0 0 0 .121 2.015l7.186 3.018v5.32c0 .412.225.79.586.988.169.092.351.139.497.139.211 0 .423-.06.609-.179l5.212-3.35 4.62 1.941a1.127 1.127 0 0 0 .988-.057c.303-.17.51-.471.56-.815l3-20.25a1.033 1.033 0 0 0-.434-1.094zm-6.201 5.392L8.54 15.38l-4.874-2.035 13.644-7.758zm-7.228 15.224V18.5l2.177.914-2.177 1.4zm8.892-1.035-8.278-3.478L21.225 4.604l-2.25 15.173z" fill="#000"/></g><defs><clipPath id="a"><path fill="#fff" d="M0 0h24v24H0z"/></clipPath></defs></svg>